<?xml version="1.0" encoding="UTF-8"?><!DOCTYPE svg PUBLIC "-//W3C//DTD SVG 1.1//EN" "http://www.w3.org/Graphics/SVG/1.1/DTD/svg11.dtd"><svg xmlns="http://www.w3.org/2000/svg"><symbol id="android" viewBox="0 0 413.137 413.137"><g fill="#aac148"><path d="M311.358 136.395H101.779a8.44 8.44 0 0 0-8.441 8.441v175.749a8.44 8.44 0 0 0 8.441 8.441h37.363v59.228c0 13.742 11.14 24.883 24.883 24.883 13.742 0 24.883-11.14 24.883-24.883v-59.228h34.803v59.228c0 13.742 11.14 24.883 24.883 24.883 13.742 0 24.883-11.14 24.883-24.883v-59.228h37.882a8.44 8.44 0 0 0 8.441-8.441V144.836a8.442 8.442 0 0 0-8.442-8.441zM57.856 136.354c-13.742 0-24.883 11.14-24.883 24.883v101.065c0 13.742 11.14 24.883 24.883 24.883 13.742 0 24.883-11.14 24.883-24.883V161.237c-.001-13.742-11.141-24.883-24.883-24.883zM355.281 136.354c-13.742 0-24.883 11.14-24.883 24.883v101.065c0 13.742 11.14 24.883 24.883 24.883 13.742 0 24.883-11.14 24.883-24.883V161.237c0-13.742-11.14-24.883-24.883-24.883zM103.475 124.069h205.692c5.366 0 9.368-4.943 8.266-10.195-6.804-32.428-27.45-59.756-55.465-75.543l17.584-31.727a4.447 4.447 0 0 0-7.78-4.311l-17.717 31.966c-14.511-6.734-30.683-10.495-47.734-10.495-17.052 0-33.224 3.761-47.735 10.495L140.869 2.292a4.447 4.447 0 0 0-7.779 4.311l17.584 31.727c-28.015 15.788-48.661 43.115-55.465 75.544-1.103 5.252 2.899 10.195 8.266 10.195zm164.222-47.283c0 5.282-4.282 9.565-9.565 9.565-5.282 0-9.565-4.282-9.565-9.565 0-5.282 4.282-9.565 9.565-9.565 5.283 0 9.565 4.283 9.565 9.565zm-113.189-9.565c5.282 0 9.565 4.282 9.565 9.565 0 5.282-4.282 9.565-9.565 9.565-5.282 0-9.565-4.282-9.565-9.565 0-5.282 4.282-9.565 9.565-9.565z"/></g></symbol><symbol id="apple" viewBox="0 0 291.538 291.538"><path d="M188.373 44.308c10.97-11.744 18.39-28.049 16.359-44.308-15.804.564-34.958 9.277-46.302 21.02-10.169 10.396-19.072 27.011-16.696 42.951 17.635 1.193 35.651-7.938 46.639-19.663zm33.657 112.285c-.337-36.451 28.859-53.958 30.152-54.804-16.414-24.753-41.977-28.14-51.081-28.522-21.767-2.285-42.442 13.182-53.493 13.182-11.006 0-28.03-12.882-46.083-12.536-23.733.391-45.601 14.211-57.79 36.114-24.654 44.063-6.319 109.336 17.705 145.077 11.744 17.497 25.727 37.125 44.089 36.415 17.725-.71 24.407-11.789 45.792-11.789 21.394 0 27.384 11.789 46.101 11.434 19.045-.355 31.098-17.834 42.742-35.386 13.473-20.292 19.027-39.938 19.345-40.93-.409-.237-37.088-14.666-37.479-58.255z" fill="#ccd0d2"/></symbol><symbol id="facebook-hover" viewBox="0 0 112.196 112.196"><circle cx="56.098" cy="56.098" r="56.098" fill="#fff"/><path d="M70.201 58.294h-10.01v36.672H45.025V58.294h-7.213V45.406h7.213v-8.34c0-5.964 2.833-15.303 15.301-15.303l11.234.047v12.51h-8.151c-1.337 0-3.217.668-3.217 3.513v7.585h11.334l-1.325 12.876z" fill="#3b5998"/></symbol><symbol id="facebook" viewBox="0 0 112.196 112.196"><circle cx="56.098" cy="56.098" r="56.098" fill="#3b5998"/><path d="M70.201 58.294h-10.01v36.672H45.025V58.294h-7.213V45.406h7.213v-8.34c0-5.964 2.833-15.303 15.301-15.303l11.234.047v12.51h-8.151c-1.337 0-3.217.668-3.217 3.513v7.585h11.334l-1.325 12.876z" fill="#fff"/></symbol><symbol id="instagram-hover" viewBox="0 0 89.758 89.758"><g fill="#fff"><path d="M58.255 23.88H31.503c-4.27 0-7.744 3.474-7.744 7.744v26.752c0 4.27 3.474 7.745 7.744 7.745h26.752c4.27 0 7.745-3.474 7.745-7.745V31.624c0-4.27-3.474-7.744-7.745-7.744zM44.879 58.906c-7.667 0-13.905-6.238-13.905-13.906 0-7.667 6.238-13.905 13.905-13.905 7.668 0 13.906 6.238 13.906 13.905 0 7.667-6.239 13.906-13.906 13.906zM59.232 33.97a3.294 3.294 0 0 1-3.291-3.29 3.294 3.294 0 0 1 3.291-3.29 3.294 3.294 0 0 1 3.29 3.29 3.294 3.294 0 0 1-3.29 3.29z"/><path d="M44.879 36.971c-4.426 0-8.03 3.602-8.03 8.028 0 4.428 3.604 8.031 8.03 8.031 4.428 0 8.029-3.603 8.029-8.031 0-4.425-3.602-8.028-8.029-8.028z"/><path d="M44.879 0C20.094 0 0 20.094 0 44.879c0 24.785 20.094 44.879 44.879 44.879 24.785 0 44.879-20.094 44.879-44.879C89.758 20.094 69.664 0 44.879 0zm26.996 58.376c0 7.511-6.109 13.62-13.62 13.62H31.503c-7.51 0-13.62-6.109-13.62-13.62V31.624c0-7.51 6.11-13.62 13.62-13.62h26.752c7.511 0 13.62 6.11 13.62 13.62v26.752z"/></g></symbol><symbol id="instagram" viewBox="0 0 89.758 89.758"><g fill="#6a453b"><path d="M58.255 23.88H31.503c-4.27 0-7.744 3.474-7.744 7.744v26.752c0 4.27 3.474 7.745 7.744 7.745h26.752c4.27 0 7.745-3.474 7.745-7.745V31.624c0-4.27-3.474-7.744-7.745-7.744zM44.879 58.906c-7.667 0-13.905-6.238-13.905-13.906 0-7.667 6.238-13.905 13.905-13.905 7.668 0 13.906 6.238 13.906 13.905 0 7.667-6.239 13.906-13.906 13.906zM59.232 33.97a3.294 3.294 0 0 1-3.291-3.29 3.294 3.294 0 0 1 3.291-3.29 3.294 3.294 0 0 1 3.29 3.29 3.294 3.294 0 0 1-3.29 3.29z"/><path d="M44.879 36.971c-4.426 0-8.03 3.602-8.03 8.028 0 4.428 3.604 8.031 8.03 8.031 4.428 0 8.029-3.603 8.029-8.031 0-4.425-3.602-8.028-8.029-8.028z"/><path d="M44.879 0C20.094 0 0 20.094 0 44.879c0 24.785 20.094 44.879 44.879 44.879 24.785 0 44.879-20.094 44.879-44.879C89.758 20.094 69.664 0 44.879 0zm26.996 58.376c0 7.511-6.109 13.62-13.62 13.62H31.503c-7.51 0-13.62-6.109-13.62-13.62V31.624c0-7.51 6.11-13.62 13.62-13.62h26.752c7.511 0 13.62 6.11 13.62 13.62v26.752z"/></g></symbol><symbol id="pinterest-hover" viewBox="0 0 112.198 112.198"><circle cx="56.099" cy="56.1" r="56.098" fill="#f1f2f2"/><path d="M60.627 75.122c-4.241-.328-6.023-2.431-9.349-4.45-1.828 9.591-4.062 18.785-10.679 23.588-2.045-14.496 2.998-25.384 5.34-36.941-3.992-6.72.48-20.246 8.9-16.913 10.363 4.098-8.972 24.987 4.008 27.596 13.551 2.724 19.083-23.513 10.679-32.047-12.142-12.321-35.343-.28-32.49 17.358.695 4.312 5.151 5.621 1.78 11.571-7.771-1.721-10.089-7.85-9.791-16.021.481-13.375 12.018-22.74 23.59-24.036 14.635-1.638 28.371 5.374 30.267 19.14 2.133 15.537-6.607 32.363-22.255 31.155z" fill="#cb2027"/></symbol><symbol id="pinterest" viewBox="0 0 112.198 112.198"><circle cx="56.099" cy="56.1" r="56.098" fill="#cb2027"/><path d="M60.627 75.122c-4.241-.328-6.023-2.431-9.349-4.45-1.828 9.591-4.062 18.785-10.679 23.588-2.045-14.496 2.998-25.384 5.34-36.941-3.992-6.72.48-20.246 8.9-16.913 10.363 4.098-8.972 24.987 4.008 27.596 13.551 2.724 19.083-23.513 10.679-32.047-12.142-12.321-35.343-.28-32.49 17.358.695 4.312 5.151 5.621 1.78 11.571-7.771-1.721-10.089-7.85-9.791-16.021.481-13.375 12.018-22.74 23.59-24.036 14.635-1.638 28.371 5.374 30.267 19.14 2.133 15.537-6.607 32.363-22.255 31.155z" fill="#f1f2f2"/></symbol><symbol id="svg"/><symbol id="vk-hover" viewBox="0 0 112.196 112.196"><circle cx="56.098" cy="56.098" r="56.098" fill="#fff"/><path d="M53.979 80.702h4.403s1.33-.146 2.009-.878c.625-.672.605-1.934.605-1.934s-.086-5.908 2.656-6.778c2.703-.857 6.174 5.71 9.853 8.235 2.782 1.911 4.896 1.492 4.896 1.492l9.837-.137s5.146-.317 2.706-4.363c-.2-.331-1.421-2.993-7.314-8.463-6.168-5.725-5.342-4.799 2.088-14.702 4.525-6.031 6.334-9.713 5.769-11.29-.539-1.502-3.867-1.105-3.867-1.105l-11.076.069s-.821-.112-1.43.252c-.595.357-.978 1.189-.978 1.189s-1.753 4.667-4.091 8.636c-4.932 8.375-6.904 8.817-7.71 8.297-1.875-1.212-1.407-4.869-1.407-7.467 0-8.116 1.231-11.5-2.397-12.376-1.204-.291-2.09-.483-5.169-.514-3.952-.041-7.297.012-9.191.94-1.26.617-2.232 1.992-1.64 2.071.732.098 2.39.447 3.269 1.644 1.135 1.544 1.095 5.012 1.095 5.012s.652 9.554-1.523 10.741c-1.493.814-3.541-.848-7.938-8.446-2.253-3.892-3.954-8.194-3.954-8.194s-.328-.804-.913-1.234c-.71-.521-1.702-.687-1.702-.687l-10.525.069s-1.58.044-2.16.731c-.516.611-.041 1.875-.041 1.875s8.24 19.278 17.57 28.993c8.555 8.907 18.27 8.322 18.27 8.322z" fill-rule="evenodd" clip-rule="evenodd" fill="#4d76a1"/></symbol><symbol id="vk" viewBox="0 0 112.196 112.196"><circle cx="56.098" cy="56.098" r="56.098" fill="#4d76a1"/><path d="M53.979 80.702h4.403s1.33-.146 2.009-.878c.625-.672.605-1.934.605-1.934s-.086-5.908 2.656-6.778c2.703-.857 6.174 5.71 9.853 8.235 2.782 1.911 4.896 1.492 4.896 1.492l9.837-.137s5.146-.317 2.706-4.363c-.2-.331-1.421-2.993-7.314-8.463-6.168-5.725-5.342-4.799 2.088-14.702 4.525-6.031 6.334-9.713 5.769-11.29-.539-1.502-3.867-1.105-3.867-1.105l-11.076.069s-.821-.112-1.43.252c-.595.357-.978 1.189-.978 1.189s-1.753 4.667-4.091 8.636c-4.932 8.375-6.904 8.817-7.71 8.297-1.875-1.212-1.407-4.869-1.407-7.467 0-8.116 1.231-11.5-2.397-12.376-1.204-.291-2.09-.483-5.169-.514-3.952-.041-7.297.012-9.191.94-1.26.617-2.232 1.992-1.64 2.071.732.098 2.39.447 3.269 1.644 1.135 1.544 1.095 5.012 1.095 5.012s.652 9.554-1.523 10.741c-1.493.814-3.541-.848-7.938-8.446-2.253-3.892-3.954-8.194-3.954-8.194s-.328-.804-.913-1.234c-.71-.521-1.702-.687-1.702-.687l-10.525.069s-1.58.044-2.16.731c-.516.611-.041 1.875-.041 1.875s8.24 19.278 17.57 28.993c8.555 8.907 18.27 8.322 18.27 8.322z" fill-rule="evenodd" clip-rule="evenodd" fill="#fff"/></symbol></svg>